<?xml version="1.0" encoding="iso-8859-1"?>
<!-- Uploaded to: SVG Repo, www.svgrepo.com, Generator: SVG Repo Mixer Tools -->
<svg fill="#FFFFFF" height="800px" width="800px" version="1.1" id="Layer_1" xmlns="http://www.w3.org/2000/svg" xmlns:xlink="http://www.w3.org/1999/xlink" 
	 viewBox="0 0 512 512" xml:space="preserve">
<g>
	<g>
		<path d="M367.83,0H144.17c-22.082,0-40.048,17.966-40.048,40.048v431.905c0,22.082,17.966,40.047,40.048,40.047h223.66
			c22.082,0,40.048-17.966,40.048-40.047V40.048C407.877,17.966,389.912,0,367.83,0z M119.33,92.498h13.872v323.699H119.33V92.498z
			 M392.67,471.953c0,13.696-11.143,24.84-24.84,24.84H144.17c-13.696,0-24.84-11.143-24.84-24.84v-40.548h21.476h226.993h24.87
			V471.953z M148.41,416.196V92.498h211.786v323.699H148.41z M392.67,416.196h-17.266V92.498h17.266V416.196z M392.67,77.29H367.8
			H140.806H119.33V40.048c0-13.696,11.143-24.84,24.84-24.84h223.66c13.696,0,24.84,11.143,24.84,24.84V77.29z"/>
	</g>
</g>
<g>
	<g>
		<path d="M295.715,29.106h-63.356c-9.561,0-17.339,7.778-17.339,17.339c0,9.561,7.778,17.339,17.339,17.339h63.356
			c9.561,0,17.339-7.778,17.339-17.339C313.054,36.884,305.276,29.106,295.715,29.106z M295.715,48.576h-63.356
			c-1.156,0-2.131-0.975-2.131-2.131c0-1.155,0.976-2.131,2.131-2.131h63.356c1.155,0,2.131,0.975,2.131,2.131
			C297.846,47.6,296.871,48.576,295.715,48.576z"/>
	</g>
</g>
<g>
	<g>
		<path d="M254.302,444.942c-9.561,0-17.339,7.778-17.339,17.339c0,9.561,7.778,17.339,17.339,17.339
			c9.561,0,17.339-7.778,17.339-17.339C271.641,452.721,263.863,444.942,254.302,444.942z M254.302,464.412
			c-1.155,0-2.131-0.975-2.131-2.131c0-1.155,0.975-2.131,2.131-2.131c1.156,0,2.131,0.975,2.131,2.131
			C256.433,463.437,255.458,464.412,254.302,464.412z"/>
	</g>
</g>
<g>
	<g>
		<path d="M173.193,444.942c-9.561,0-17.339,7.778-17.339,17.339c0,9.561,7.778,17.339,17.339,17.339s17.339-7.778,17.339-17.339
			C190.532,452.721,182.755,444.942,173.193,444.942z M173.193,464.412c-1.155,0-2.131-0.975-2.131-2.131
			c0-1.155,0.975-2.131,2.131-2.131s2.131,0.975,2.131,2.131C175.324,463.437,174.349,464.412,173.193,464.412z"/>
	</g>
</g>
<g>
	<g>
		<path d="M345.549,444.942c-9.561,0-17.339,7.778-17.339,17.339c0,9.561,7.778,17.339,17.339,17.339
			c9.561,0,17.339-7.778,17.339-17.339C362.888,452.721,355.111,444.942,345.549,444.942z M345.549,464.412
			c-1.155,0-2.131-0.975-2.131-2.131c0-1.155,0.975-2.131,2.131-2.131c1.156,0,2.131,0.975,2.131,2.131
			C347.68,463.437,346.705,464.412,345.549,464.412z"/>
	</g>
</g>
<g>
	<g>
		<path d="M325.412,117.75h-138.48c-4.199,0-7.604,3.405-7.604,7.604v138.48c0,4.199,3.405,7.604,7.604,7.604h138.48
			c4.199,0,7.604-3.405,7.604-7.604v-138.48C333.016,121.154,329.611,117.75,325.412,117.75z M317.808,256.23H194.536V132.958
			h123.272V256.23z"/>
	</g>
</g>
<g>
	<g>
		<path d="M325.412,285.462h-138.48c-4.199,0-7.604,3.405-7.604,7.604v27.213c0,4.199,3.405,7.604,7.604,7.604h138.48
			c4.199,0,7.604-3.405,7.604-7.604v-27.213C333.016,288.866,329.611,285.462,325.412,285.462z M317.808,312.674H194.536v-12.005
			h123.272V312.674z"/>
	</g>
</g>
<g>
	<g>
		<path d="M325.412,342.946h-138.48c-4.199,0-7.604,3.405-7.604,7.604v27.213c0,4.199,3.405,7.604,7.604,7.604h138.48
			c4.199,0,7.604-3.405,7.604-7.604V350.55C333.016,346.35,329.611,342.946,325.412,342.946z M317.808,370.159H194.536v-12.005
			h123.272V370.159z"/>
	</g>
</g>
</svg>