<?xml version="1.0" encoding="iso-8859-1"?>
<!-- Uploaded to: SVG Repo, www.svgrepo.com, Generator: SVG Repo Mixer Tools -->
<svg fill="#ffffff" height="800px" width="800px" version="1.1" id="Layer_1" xmlns="http://www.w3.org/2000/svg" xmlns:xlink="http://www.w3.org/1999/xlink" 
	 viewBox="0 0 512 512" xml:space="preserve">
<g transform="translate(1 1)">
	<g>
		<g>
			<path d="M370.2-1H148.333C129.56-1,114.2,14.36,114.2,33.133V50.2v25.6c-5.12,0-8.533,3.413-8.533,8.533v8.533
				c0,5.12,3.413,8.533,8.533,8.533v8.533c-5.12,0-8.533,3.413-8.533,8.533V127c0,5.12,3.413,8.533,8.533,8.533v8.533
				c-5.12,0-8.533,3.413-8.533,8.533v8.533c0,5.12,3.413,8.533,8.533,8.533v273.067v34.133c0,18.773,15.36,34.133,34.133,34.133
				H370.2c18.773,0,34.133-15.36,34.133-34.133v-34.133V50.2V33.133C404.333,14.36,388.973-1,370.2-1z M259.267,485.4
				c-9.387,0-17.067-7.68-17.067-17.067s7.68-17.067,17.067-17.067c9.387,0,17.067,7.68,17.067,17.067S268.653,485.4,259.267,485.4z
				 M131.267,67.267h256v358.4h-256V67.267z M131.267,476.867v-34.133h105.497c-7.117,6.267-11.63,15.43-11.63,25.6
				s4.514,19.333,11.63,25.6h-88.43C138.947,493.933,131.267,486.253,131.267,476.867z M387.267,476.867
				c0,9.387-7.68,17.067-17.067,17.067h-88.43c7.117-6.267,11.63-15.43,11.63-25.6s-4.514-19.333-11.63-25.6h105.497V476.867z
				 M131.267,50.2V33.133c0-9.387,7.68-17.067,17.067-17.067H370.2c9.387,0,17.067,7.68,17.067,17.067V50.2H131.267z"/>
			<path d="M293.4,24.6h-42.667c-5.12,0-8.533,3.413-8.533,8.533c0,5.12,3.413,8.533,8.533,8.533H293.4
				c5.12,0,8.533-3.413,8.533-8.533C301.933,28.013,298.52,24.6,293.4,24.6z"/>
			<path d="M225.133,24.6H216.6c-5.12,0-8.533,3.413-8.533,8.533c0,5.12,3.413,8.533,8.533,8.533h8.533
				c5.12,0,8.533-3.413,8.533-8.533C233.667,28.013,230.253,24.6,225.133,24.6z"/>
			<path d="M177.347,255l45.227-45.227c3.413-3.413,3.413-8.533,0-11.947s-8.533-3.413-11.947,0l-51.2,51.2
				c-2.56,2.56-3.413,5.973-2.56,8.533c0.853,1.707,1.707,2.56,2.56,3.413l51.2,51.2c1.707,1.707,3.413,2.56,5.973,2.56
				s4.267-0.853,5.973-2.56c3.413-3.413,3.413-8.533,0-11.947L177.347,255z"/>
			<path d="M307.907,197.827c-3.413-3.413-8.533-3.413-11.947,0s-3.413,8.533,0,11.947L341.187,255l-45.227,45.227
				c-3.413,3.413-3.413,8.533,0,11.947c1.707,1.707,3.413,2.56,5.973,2.56s4.267-0.853,5.973-2.56l51.2-51.2
				c3.413-3.413,3.413-8.533,0-11.947L307.907,197.827z"/>
			<path d="M269.507,195.267c-5.12-0.853-9.387,2.56-10.24,6.827l-17.067,102.4c-0.853,5.12,2.56,9.387,6.827,10.24
				c0.853,0,0.853,0,1.707,0c4.267,0,7.68-2.56,8.533-6.827l17.067-102.4C277.187,200.387,273.773,196.12,269.507,195.267z"/>
		</g>
	</g>
</g>
</svg>