<?xml version="1.0" encoding="iso-8859-1"?>
<!-- Uploaded to: SVG Repo, www.svgrepo.com, Generator: SVG Repo Mixer Tools -->
<svg height="800px" width="800px" version="1.1" id="Layer_1" xmlns="http://www.w3.org/2000/svg" xmlns:xlink="http://www.w3.org/1999/xlink" 
	 viewBox="0 0 392.598 392.598" xml:space="preserve">
<path style="fill:#56ACE0;" d="M370.78,32.711c0-6.012-4.848-10.925-10.925-10.925H32.743c-6.012,0-10.925,4.848-10.925,10.925
	v51.523H370.78L370.78,32.711L370.78,32.711z"/>
<g>
	<path style="fill:#194F82;" d="M344.598,38.335H154.796c-6.012,0-10.925,4.848-10.925,10.925s4.848,10.925,10.925,10.925h189.802
		c6.012,0,10.925-4.848,10.925-10.925S350.61,38.335,344.598,38.335z"/>
	<path style="fill:#194F82;" d="M113.358,38.335h-10.925c-6.012,0-10.925,4.848-10.925,10.925s4.848,10.925,10.925,10.925h10.925
		c6.012,0,10.925-4.848,10.925-10.925S119.434,38.335,113.358,38.335z"/>
	<path style="fill:#194F82;" d="M58.925,38.335H48c-6.012,0-10.925,4.978-10.925,10.99S41.923,60.25,48,60.25h10.925
		c6.012,0,10.925-4.848,10.925-10.925S64.937,38.335,58.925,38.335z"/>
</g>
<g>
	<path style="fill:#FFFFFF;" d="M21.818,84.234v21.915h53.915c6.012,0,10.925,4.848,10.925,10.925
		c0,6.077-4.848,10.925-10.925,10.925H21.818v23.596h26.117c6.012,0,10.925,4.848,10.925,10.925c0,6.012-4.848,10.925-10.925,10.925
		H21.818v186.44c0,6.012,4.848,10.925,10.925,10.925h2.263V344.76c0-6.012,4.848-10.925,10.925-10.925h34.844l-24.63-24.63
		c-4.008-3.879-4.396-10.602,0-15.451l52.234-52.234c4.267-4.267,11.119-4.267,15.451,0l24.63,24.63v-34.974
		c0-6.012,4.848-10.925,10.925-10.925h73.762c6.012,0,10.925,4.848,10.925,10.925v34.844l24.63-24.63
		c4.267-4.267,11.119-4.267,15.451,0l52.234,52.234c3.814,4.073,4.59,10.602,0,15.451l-24.566,24.695h34.844
		c6.012,0,10.925,4.848,10.925,10.925v26.053h2.263c6.012,0,10.925-4.848,10.925-10.925V84.234H21.818z"/>
	<path style="fill:#FFFFFF;" d="M196.299,337.39c-20.687,0-38.077,14.222-42.99,33.358h85.915
		C234.376,351.612,216.986,337.39,196.299,337.39z"/>
</g>
<path style="fill:#FFC10D;" d="M335.806,370.747V355.62H304c-4.655,0-8.792-2.909-10.279-7.37
	c-1.293-3.879-3.038-7.887-4.849-11.766c-2.069-4.202-1.228-9.18,2.069-12.541l22.562-22.497l-36.848-36.784l-22.562,22.562
	c-3.297,3.297-8.339,4.073-12.541,2.069c-3.879-1.939-7.887-3.556-11.766-4.848c-4.396-1.552-7.37-5.624-7.37-10.279V242.36h-52.105
	v31.806c0,4.655-2.909,8.792-7.37,10.279c-3.943,1.422-7.887,3.038-11.766,4.848c-4.202,2.069-9.18,1.228-12.541-2.069
	l-22.497-22.497l-36.784,36.784l22.562,22.497c3.297,3.297,4.202,8.339,2.069,12.541c-1.939,3.879-3.556,7.822-4.848,11.766
	c-1.552,4.396-5.624,7.37-10.279,7.37H56.792v15.127h74.343c5.236-31.289,32.388-55.143,65.164-55.143s59.863,23.984,65.164,55.143
	h74.343V370.747z"/>
<path style="fill:#194F82;" d="M359.855,0H32.743C14.707,0,0.032,14.675,0.032,32.711v327.111c0,18.101,14.675,32.776,32.711,32.776
	h327.111c18.036,0,32.711-14.675,32.711-32.711V32.711C392.566,14.675,377.891,0,359.855,0z M359.855,370.747h-2.263v-26.053
	c0-6.012-4.848-10.925-10.925-10.925h-34.844l24.63-24.63c4.59-4.784,3.814-11.313,0-15.451l-52.234-52.234
	c-4.267-4.267-11.119-4.267-15.451,0l-24.63,24.63V231.24c0-6.012-4.848-10.925-10.925-10.925h-73.762
	c-6.012,0-10.925,4.848-10.925,10.925v34.844l-24.63-24.63c-4.267-4.267-11.119-4.267-15.451,0L56.21,293.689
	c-4.396,4.784-4.008,11.507,0,15.451l24.63,24.63H45.931c-6.012,0-10.925,4.848-10.925,10.925v26.053h-2.263
	c-6.012,0-10.925-4.848-10.925-10.925V173.317h26.117c6.012,0,10.925-4.848,10.925-10.925c0-6.012-4.848-10.925-10.925-10.925
	H21.818v-23.596h53.915c6.012,0,10.925-4.848,10.925-10.925c0-6.012-4.848-10.925-10.925-10.925H21.818V84.105V32.711
	c0-6.012,4.848-10.925,10.925-10.925h327.111c6.012,0,10.925,4.848,10.925,10.925v51.523v275.588
	C370.78,365.834,365.867,370.747,359.855,370.747z M196.299,337.39c20.687,0,38.077,14.222,42.99,33.358h-85.98
	C158.222,351.612,175.612,337.39,196.299,337.39z M196.299,315.604c-32.776,0-59.863,23.984-65.164,55.143H56.792V355.62h31.806
	c4.655,0,8.792-2.909,10.279-7.37c1.293-3.943,3.038-7.887,4.848-11.766c2.069-4.202,1.228-9.18-2.069-12.541l-22.562-22.497
	l36.784-36.784l22.562,22.562c3.297,3.297,8.275,4.073,12.541,2.069c3.879-1.939,7.822-3.556,11.766-4.849
	c4.396-1.552,7.37-5.624,7.37-10.279V242.36h52.04v31.806c0,4.655,2.909,8.792,7.37,10.279c3.943,1.293,7.887,3.038,11.766,4.849
	c4.202,2.069,9.18,1.228,12.541-2.069l22.562-22.562l36.848,36.784l-22.562,22.497c-3.297,3.297-4.073,8.339-2.069,12.541
	c1.939,3.943,3.556,7.887,4.848,11.766c1.552,4.396,5.624,7.37,10.279,7.37h31.806v15.127h-74.343
	C256.162,339.459,229.075,315.604,196.299,315.604z"/>
</svg>